<svg xmlns="http://www.w3.org/2000/svg" version="1.1" xmlns:xlink="http://www.w3.org/1999/xlink" xmlns:svgjs="http://svgjs.dev/svgjs" width="1500" height="1500" viewBox="0 0 1500 1500"><rect width="1500" height="1500" fill="#ede1d1"></rect><g transform="matrix(0.6666666666666666,0,0,0.6666666666666666,249.39393939393938,435.99032258064517)"><svg viewBox="0 0 396 248" data-background-color="#ede1d1" preserveAspectRatio="xMidYMid meet" height="939" width="1500" xmlns="http://www.w3.org/2000/svg" xmlns:xlink="http://www.w3.org/1999/xlink"><g id="tight-bounds" transform="matrix(1,0,0,1,0.2400000000000091,0.4000000000000057)"><svg viewBox="0 0 395.52 247.2" height="247.2" width="395.52"><g><svg></svg></g><g><svg viewBox="0 0 395.52 247.2" height="247.2" width="395.52"><g transform="matrix(1,0,0,1,84.28486925373134,47.215199999999996)"><svg viewBox="0 0 226.9502614925373 152.7696" height="152.7696" width="226.9502614925373"><g><svg viewBox="0 0 226.9502614925373 152.7696" height="152.7696" width="226.9502614925373"><g><svg viewBox="0 0 226.9502614925373 152.7696" height="152.7696" width="226.9502614925373"><g><svg viewBox="0 0 226.9502614925373 152.7696" height="152.7696" width="226.9502614925373"><g id="textblocktransform"><svg viewBox="0 0 226.9502614925373 152.7696" height="152.7696" width="226.9502614925373" id="textblock"><g><svg viewBox="0 0 226.9502614925373 152.7696" height="152.7696" width="226.9502614925373"><g transform="matrix(1,0,0,1,0,0)"><svg width="226.9502614925373" viewBox="1.45 -35.8 74.64 50.25" height="152.7696" data-palette-color="#6a704c"><path d="M18.95-19.1L18.2-18.95Q17.65-18.8 17.65-18.63 17.65-18.45 18.85-18 20.05-17.55 21.13-16.6 22.2-15.65 22.65-14.3L22.65-14.3Q23.35-12.25 23.35-9.9 23.35-7.55 23.7-6.03 24.05-4.5 24.55-3.7L24.55-3.7Q25.55-2 26.4-1.6L26.4-1.6 26.75-1.4Q27.05-1.2 27.05-0.9L27.05-0.9Q27.05-0.15 24.6 0.43 22.15 1 20.8 1L20.8 1Q18.15 1 17.43-1.13 16.7-3.25 16.7-8.4L16.7-8.4 16.7-11.15Q16.7-15.5 14.1-16.7L14.1-16.7Q13.1-17.15 11.7-17.15L11.7-17.15 11.65-17.15Q11.2-17.15 11.2-18.03 11.2-18.9 11.73-19.8 12.25-20.7 12.65-20.7L12.65-20.7Q14.3-20.7 15.5-21.33 16.7-21.95 17.25-22.85L17.25-22.85Q18.4-24.75 18.5-26.1L18.5-26.1 18.5-26.75Q18.5-28.6 17.9-29.88 17.3-31.15 16.4-31.65L16.4-31.65Q14.9-32.45 13.35-32.45 11.8-32.45 10.8-32.2L10.8-32.2Q9.4-31.8 9.4-31.35L9.4-31.35Q8.95-24.8 8.95-18.73 8.95-12.65 9.13-9.43 9.3-6.2 9.47-4.23 9.65-2.25 9.65-1.9L9.65-1.9Q9.65-1.25 9.3-1L9.3-1Q7.25 0.9 2.85 0.9L2.85 0.9Q2.1 0.9 2.1 0.4L2.1 0.4Q2.1 0.25 2.25-0.3L2.25-0.3Q2.75-1.45 2.98-7.6 3.2-13.75 3.2-18.82 3.2-23.9 3-27.05L3-27.05Q2.7-31.8 2-32.75L2-32.75Q1.45-33.45 1.45-33.73 1.45-34 2-34.3L2-34.3Q5.2-35.8 13.6-35.8L13.6-35.8Q20.35-35.8 23.7-32L23.7-32Q25.5-29.9 25.5-26.75L25.5-26.75Q25.5-24.85 24.75-23.35 24-21.85 22.9-21.05L22.9-21.05Q20.8-19.45 18.95-19.1L18.95-19.1ZM33.05-26.75L33.05-26.75 31.85-26.8Q30.5-26.8 30.1-26.15L30.1-26.15Q30-26 29.85-26L29.85-26Q29.2-26 29.2-28.23 29.2-30.45 29.87-31.05 30.55-31.65 32.22-31.65 33.9-31.65 34.5-31.08 35.1-30.5 35.1-29.15 35.1-27.8 34.65-27.28 34.2-26.75 33.05-26.75ZM29.05-1.5L29.05-1.5 29.6-13.15Q29.6-17.3 28.65-18.8L28.65-18.8Q28.35-19.3 27.95-19.55L27.95-19.55Q27.65-19.65 27.65-19.95L27.65-19.95Q27.65-20.85 30.2-21.7 32.75-22.55 33.92-22.55 35.1-22.55 35.15-21.95L35.15-21.95Q35.15-20.95 34.87-16.28 34.6-11.6 34.6-6.45 34.6-1.3 35.2-0.05L35.2-0.05Q35.35 0.2 35.35 0.45L35.35 0.45Q35.35 1.1 33.45 1.1 31.55 1.1 29.55 0.1L29.55 0.1Q29.05-0.15 29.05-1.5ZM47.25 13.85L47.25 13.85Q47.25 14.45 46.65 14.45L46.65 14.45 46.6 14.45Q44.95 14.45 42.87 13.3 40.8 12.15 40.8 10.65 40.8 9.15 42.7 5.43 44.6 1.7 44.6 0.45L44.6 0.45Q44.6-0.9 43.3-4.4L43.3-4.4Q41.65-8.95 40.67-11.8 39.7-14.65 38.57-16.82 37.45-19 36.95-19.4L36.95-19.4 36.45-19.75Q35.9-20.05 35.9-20.4L35.9-20.4Q35.9-21.1 38.07-21.83 40.25-22.55 41.9-22.55L41.9-22.55Q42.65-22.55 43.15-21.35L43.15-21.35Q44.05-19 45.1-14.85L45.1-14.85Q47.65-6.35 48.3-6.35L48.3-6.35Q48.75-6.35 50.12-9.85 51.5-13.35 51.5-15.5L51.5-15.5Q51.5-19.25 49.3-19.9L49.3-19.9Q48.8-20 48.8-20.4L48.8-20.4Q48.8-21.3 51.15-22.13 53.5-22.95 55.4-22.95L55.4-22.95Q57.05-22.95 57.05-20.8L57.05-20.8Q57.05-19.15 56.35-16.95 55.65-14.75 55.05-13.48 54.45-12.2 52.07-7.58 49.7-2.95 48.15 0.55L48.15 0.55Q46.45 4.75 46.45 9.1L46.45 9.1Q46.45 11.4 46.85 12.55 47.25 13.7 47.25 13.85ZM74.54-15L74.54-15 74.44-8.6Q74.44-1.95 75.89-0.6L75.89-0.6Q76.09-0.4 76.09-0.15L76.09-0.15Q76.09 0.6 72.87 0.6 69.64 0.6 69.44-1.3L69.44-1.3Q69.39-1.75 69.39-3.15L69.39-3.15 69.59-11.15Q69.59-11.5 69.19-11.5L69.19-11.5Q66.79-11.5 64.69-10.15 62.59-8.8 62.59-6.7L62.59-6.7Q62.59-5.6 63.19-4.85 63.79-4.1 64.67-4.1 65.54-4.1 66.12-4.45 66.69-4.8 66.79-4.85L66.79-4.85Q67.64-4.75 67.64-3.08 67.64-1.4 66.09-0.38 64.54 0.65 62.84 0.65 61.14 0.65 59.92 0.05 58.69-0.55 58.14-1.3 57.59-2.05 57.24-3L57.24-3Q56.89-4.15 56.89-5L56.89-5Q56.89-8.5 59.09-10.6 61.29-12.7 64.74-13.6L64.74-13.6Q69.29-14.5 69.49-15.25L69.49-15.25Q69.64-15.8 69.64-17.1L69.64-17.1Q69.64-19.75 66.94-19.75L66.94-19.75Q65.79-19.75 64.89-19.03 63.99-18.3 63.99-17.2L63.99-17.2 64.29-16Q64.19-15.15 62.49-15L62.49-15 61.94-14.95Q60.44-14.95 59.57-15.7 58.69-16.45 58.69-17.7L58.69-17.7Q58.69-18.5 59.22-19.48 59.74-20.45 60.54-21.05 61.34-21.65 63.02-22.13 64.69-22.6 66.24-22.6 67.79-22.6 68.64-22.5 69.49-22.4 70.97-22.03 72.44-21.65 73.42-20.6 74.39-19.55 74.47-18.38 74.54-17.2 74.54-15Z" opacity="1" transform="matrix(1,0,0,1,0,0)" fill="#6a704c" class="wordmark-text-0" data-fill-palette-color="primary" id="text-0"></path></svg></g></svg></g></svg></g></svg></g><g></g></svg></g></svg></g></svg></g><g><path d="M182.542 11.15A113.475 113.475 0 0 1 212.978 11.15L199.201 11.15A99.698 99.698 0 0 0 196.319 11.15L182.542 11.15M182.542 236.05A113.475 113.475 0 0 0 212.978 236.05L199.201 236.05A99.698 99.698 0 0 1 196.319 236.05L182.542 236.05" fill="#6a704c" stroke="transparent" data-fill-palette-color="tertiary"></path></g></svg></g><defs></defs></svg><rect width="395.52" height="247.2" fill="none" stroke="none" visibility="hidden"></rect></g></svg></g></svg>